<?xml version="1.0" encoding="UTF-8" standalone="no"?>
<svg
		xmlns:dc="http://purl.org/dc/elements/1.1/"
		xmlns:cc="http://creativecommons.org/ns#"
		xmlns:rdf="http://www.w3.org/1999/02/22-rdf-syntax-ns#"
		xmlns="http://www.w3.org/2000/svg"
		xmlns:xlink="http://www.w3.org/1999/xlink"
		xmlns:sodipodi="http://sodipodi.sourceforge.net/DTD/sodipodi-0.dtd"
		xmlns:inkscape="http://www.inkscape.org/namespaces/inkscape"
		inkscape:version="1.0beta2 (2b71d25, 2019-12-03)"
		sodipodi:docname="Acme Logos.svg"
		xml:space="preserve"
		enable-background="new 0 0 500 500"
		viewBox="0 0 220.92799 61.818001"
		height="61.818001"
		width="220.92799"
		y="0px"
		x="0px"
		id="Ebene_1"
		version="1.1"><metadata
   id="metadata184"><rdf:RDF><cc:Work
       rdf:about=""><dc:format>image/svg+xml</dc:format><dc:type
		rdf:resource="http://purl.org/dc/dcmitype/StillImage" /><dc:title></dc:title></cc:Work></rdf:RDF></metadata>
	<defs
			id="defs182">
	<defs
			id="defs136">
		<rect
				y="0"
				x="0"
				id="SVGID_1_"
				width="500"
				height="500" />
	</defs>
		<clipPath
				id="SVGID_2_">
		<use
				height="100%"
				width="100%"
				y="0"
				x="0"
				xlink:href="#SVGID_1_"
				overflow="visible"
				id="use138" />
	</clipPath>
	
	
	
	
	
	
	
	
	
	
	
	
	
	
	
	
	
	
</defs>
	<sodipodi:namedview
			inkscape:current-layer="Ebene_1"
			inkscape:window-maximized="0"
			inkscape:window-y="23"
			inkscape:window-x="0"
			inkscape:cy="97.694842"
			inkscape:cx="171.78121"
			inkscape:zoom="2.086"
			showgrid="false"
			id="namedview180"
			inkscape:window-height="1395"
			inkscape:window-width="2560"
			inkscape:pageshadow="2"
			inkscape:pageopacity="0"
			guidetolerance="10"
			gridtolerance="10"
			objecttolerance="10"
			borderopacity="1"
			inkscape:document-rotation="0"
			bordercolor="#666666"
			pagecolor="#ffffff" />

	<path
			transform="translate(-138.096,-85.98)"
			clip-path="url(#SVGID_2_)"
			d="m 144.545,134.342 h -2.579 c -2.137,0 -3.87,-1.733 -3.87,-3.87 v -27.166 c 0,-2.137 1.733,-3.87 3.87,-3.87 h 2.155 c 2.137,0 3.87,1.733 3.87,3.87 v 27.59 c 0,1.903 -1.543,3.446 -3.446,3.446"
			id="path141"
			inkscape:connector-curvature="0" />
	<path
			transform="translate(-138.096,-85.98)"
			clip-path="url(#SVGID_2_)"
			d="m 198.9,147.798 h -2.579 c -2.137,0 -3.87,-1.733 -3.87,-3.87 V 89.85 c 0,-2.137 1.733,-3.87 3.87,-3.87 h 2.155 c 2.137,0 3.87,1.733 3.87,3.87 v 54.502 c 0,1.903 -1.543,3.446 -3.446,3.446"
			id="path143"
			inkscape:connector-curvature="0" />
	<path
			transform="translate(-138.096,-85.98)"
			clip-path="url(#SVGID_2_)"
			d="m 162.664,147.798 h -2.579 c -2.137,0 -3.87,-1.733 -3.87,-3.87 V 89.85 c 0,-2.137 1.733,-3.87 3.87,-3.87 h 2.155 c 2.137,0 3.87,1.733 3.87,3.87 v 54.502 c 0,1.903 -1.543,3.446 -3.446,3.446"
			id="path145"
			inkscape:connector-curvature="0" />
	<path
			transform="translate(-138.096,-85.98)"
			clip-path="url(#SVGID_2_)"
			d="m 217.019,134.342 h -2.579 c -2.137,0 -3.87,-1.733 -3.87,-3.87 v -27.166 c 0,-2.137 1.733,-3.87 3.87,-3.87 h 2.155 c 2.137,0 3.87,1.733 3.87,3.87 v 27.59 c 0,1.903 -1.543,3.446 -3.446,3.446"
			id="path147"
			inkscape:connector-curvature="0" />
	<path
			transform="translate(-138.096,-85.98)"
			clip-path="url(#SVGID_2_)"
			d="m 180.782,135.437 h -2.579 c -2.137,0 -3.87,-1.733 -3.87,-3.87 v -26.395 c 0,-2.138 1.733,-3.87 3.87,-3.87 h 2.155 c 2.137,0 3.87,1.732 3.87,3.87 v 26.819 c 0,1.903 -1.543,3.446 -3.446,3.446"
			id="path149"
			inkscape:connector-curvature="0" />
	<path
			transform="translate(-138.096,-85.98)"
			clip-path="url(#SVGID_2_)"
			fill="#646484"
			d="m 253.047,125.583 8.4,-18.061 c 0.081,-0.161 0.269,-0.295 0.456,-0.295 h 0.269 c 0.188,0 0.376,0.134 0.456,0.295 l 8.4,18.061 c 0.161,0.349 -0.055,0.698 -0.456,0.698 h -2.979 c -0.482,0 -0.698,-0.161 -0.939,-0.671 l -0.967,-2.12 h -7.299 l -0.966,2.147 c -0.134,0.322 -0.43,0.644 -0.966,0.644 h -2.953 c -0.402,10e-4 -0.617,-0.348 -0.456,-0.698 m 11.03,-5.742 -2.039,-4.428 h -0.027 l -2.013,4.428 z"
			id="path151"
			inkscape:connector-curvature="0" />
	<path
			transform="translate(-138.096,-85.98)"
			clip-path="url(#SVGID_2_)"
			fill="#646484"
			d="m 292.121,107.228 c 2.684,0 4.67,0.832 6.495,2.496 0.24,0.214 0.24,0.536 0.025,0.751 l -2.093,2.174 c -0.188,0.188 -0.483,0.188 -0.671,0 -0.993,-0.886 -2.309,-1.369 -3.623,-1.369 -3.032,0 -5.26,2.523 -5.26,5.529 0,2.978 2.255,5.447 5.287,5.447 1.261,0 2.63,-0.456 3.596,-1.288 0.188,-0.161 0.537,-0.161 0.698,0.027 l 2.093,2.227 c 0.188,0.188 0.161,0.537 -0.027,0.725 -1.825,1.771 -4.132,2.603 -6.521,2.603 -5.367,0 -9.688,-4.267 -9.688,-9.634 10e-4,-5.367 4.322,-9.688 9.689,-9.688"
			id="path153"
			inkscape:connector-curvature="0" />
	<path
			transform="translate(-138.096,-85.98)"
			clip-path="url(#SVGID_2_)"
			fill="#646484"
			d="m 314.448,107.657 c 0.027,-0.242 0.269,-0.429 0.483,-0.429 h 0.429 c 0.135,0 0.376,0.107 0.457,0.268 l 6.226,11.593 h 0.054 l 6.226,-11.593 c 0.081,-0.161 0.322,-0.268 0.457,-0.268 h 0.429 c 0.216,0 0.456,0.187 0.483,0.429 l 3.033,18.034 c 0.053,0.349 -0.188,0.59 -0.51,0.59 h -3.167 c -0.242,0 -0.483,-0.214 -0.511,-0.429 l -1.208,-8.292 h -0.053 l -4.509,8.695 c -0.08,0.161 -0.322,0.295 -0.456,0.295 h -0.483 c -0.161,0 -0.376,-0.134 -0.456,-0.295 l -4.535,-8.695 h -0.054 l -1.181,8.292 c -0.027,0.215 -0.242,0.429 -0.51,0.429 h -3.167 c -0.322,0 -0.563,-0.241 -0.51,-0.59 z"
			id="path155"
			inkscape:connector-curvature="0" />
	<path
			transform="translate(-138.096,-85.98)"
			clip-path="url(#SVGID_2_)"
			fill="#646484"
			d="m 346.894,108.006 c 0,-0.268 0.215,-0.51 0.51,-0.51 h 11.11 c 0.295,0 0.51,0.242 0.51,0.51 v 2.925 c 0,0.268 -0.215,0.51 -0.51,0.51 h -7.435 v 3.328 h 6.119 c 0.269,0 0.51,0.241 0.51,0.51 v 2.925 c 0,0.295 -0.241,0.51 -0.51,0.51 h -6.119 v 3.623 h 7.435 c 0.295,0 0.51,0.241 0.51,0.509 v 2.926 c 0,0.268 -0.215,0.51 -0.51,0.51 h -11.11 c -0.295,0 -0.51,-0.242 -0.51,-0.51 z"
			id="path157"
			inkscape:connector-curvature="0" />
	<path
			transform="translate(-138.096,-85.98)"
			clip-path="url(#SVGID_2_)"
			fill="#FFFFFF"
			d="m 145.266,389.152 h -2.579 c -2.137,0 -3.87,-1.733 -3.87,-3.87 v -27.166 c 0,-2.138 1.733,-3.87 3.87,-3.87 h 2.155 c 2.137,0 3.87,1.732 3.87,3.87 v 27.59 c -10e-4,1.903 -1.544,3.446 -3.446,3.446"
			id="path159"
			inkscape:connector-curvature="0" />
	<path
			transform="translate(-138.096,-85.98)"
			clip-path="url(#SVGID_2_)"
			fill="#FFFFFF"
			d="m 199.621,402.608 h -2.579 c -2.137,0 -3.87,-1.733 -3.87,-3.87 V 344.66 c 0,-2.137 1.733,-3.87 3.87,-3.87 h 2.155 c 2.137,0 3.87,1.733 3.87,3.87 v 54.502 c -0.001,1.903 -1.544,3.446 -3.446,3.446"
			id="path161"
			inkscape:connector-curvature="0" />
	<path
			transform="translate(-138.096,-85.98)"
			clip-path="url(#SVGID_2_)"
			fill="#FFFFFF"
			d="m 163.384,402.608 h -2.579 c -2.137,0 -3.87,-1.733 -3.87,-3.87 V 344.66 c 0,-2.137 1.733,-3.87 3.87,-3.87 h 2.155 c 2.137,0 3.87,1.733 3.87,3.87 v 54.502 c 0,1.903 -1.543,3.446 -3.446,3.446"
			id="path163"
			inkscape:connector-curvature="0" />
	<path
			transform="translate(-138.096,-85.98)"
			clip-path="url(#SVGID_2_)"
			fill="#FFFFFF"
			d="m 217.739,389.152 h -2.579 c -2.137,0 -3.87,-1.733 -3.87,-3.87 v -27.166 c 0,-2.138 1.733,-3.87 3.87,-3.87 h 2.155 c 2.137,0 3.87,1.732 3.87,3.87 v 27.59 c 0,1.903 -1.543,3.446 -3.446,3.446"
			id="path165"
			inkscape:connector-curvature="0" />
	<path
			transform="translate(-138.096,-85.98)"
			clip-path="url(#SVGID_2_)"
			fill="#FFFFFF"
			d="m 181.502,390.247 h -2.579 c -2.137,0 -3.87,-1.733 -3.87,-3.87 v -26.396 c 0,-2.138 1.733,-3.87 3.87,-3.87 h 2.155 c 2.137,0 3.87,1.732 3.87,3.87 V 386.8 c 0,1.904 -1.543,3.447 -3.446,3.447"
			id="path167"
			inkscape:connector-curvature="0" />
	<path
			transform="translate(-138.096,-85.98)"
			clip-path="url(#SVGID_2_)"
			fill="#FFFFFF"
			d="m 253.768,380.394 8.399,-18.061 c 0.081,-0.161 0.27,-0.295 0.456,-0.295 h 0.27 c 0.187,0 0.375,0.134 0.456,0.295 l 8.399,18.061 c 0.161,0.35 -0.054,0.698 -0.456,0.698 h -2.979 c -0.483,0 -0.698,-0.161 -0.94,-0.671 l -0.966,-2.12 h -7.299 l -0.966,2.147 c -0.135,0.321 -0.431,0.644 -0.967,0.644 h -2.952 c -0.402,0 -0.617,-0.349 -0.455,-0.698 m 11.029,-5.743 -2.039,-4.429 h -0.026 l -2.014,4.429 z"
			id="path169"
			inkscape:connector-curvature="0" />
	<path
			transform="translate(-138.096,-85.98)"
			clip-path="url(#SVGID_2_)"
			fill="#FFFFFF"
			d="m 292.841,362.038 c 2.685,0 4.67,0.832 6.495,2.496 0.241,0.214 0.241,0.535 0.026,0.751 l -2.094,2.174 c -0.188,0.188 -0.482,0.188 -0.671,0 -0.993,-0.886 -2.308,-1.369 -3.623,-1.369 -3.031,0 -5.26,2.523 -5.26,5.529 0,2.978 2.255,5.446 5.287,5.446 1.261,0 2.63,-0.456 3.596,-1.288 0.188,-0.16 0.537,-0.16 0.698,0.027 l 2.093,2.228 c 0.188,0.188 0.161,0.536 -0.026,0.725 -1.825,1.771 -4.133,2.603 -6.521,2.603 -5.367,0 -9.688,-4.267 -9.688,-9.634 0,-5.367 4.321,-9.688 9.688,-9.688"
			id="path171"
			inkscape:connector-curvature="0" />
	<path
			transform="translate(-138.096,-85.98)"
			clip-path="url(#SVGID_2_)"
			fill="#FFFFFF"
			d="m 315.169,362.467 c 0.026,-0.241 0.268,-0.429 0.482,-0.429 h 0.429 c 0.136,0 0.376,0.107 0.457,0.269 l 6.227,11.593 h 0.053 l 6.227,-11.593 c 0.08,-0.161 0.321,-0.269 0.456,-0.269 h 0.43 c 0.215,0 0.456,0.188 0.482,0.429 l 3.033,18.034 c 0.053,0.35 -0.188,0.59 -0.51,0.59 h -3.167 c -0.242,0 -0.483,-0.214 -0.51,-0.429 l -1.208,-8.292 h -0.054 l -4.509,8.695 c -0.08,0.161 -0.322,0.295 -0.456,0.295 h -0.482 c -0.161,0 -0.376,-0.134 -0.456,-0.295 l -4.535,-8.695 h -0.054 l -1.182,8.292 c -0.026,0.215 -0.242,0.429 -0.51,0.429 h -3.167 c -0.322,0 -0.563,-0.24 -0.509,-0.59 z"
			id="path173"
			inkscape:connector-curvature="0" />
	<path
			transform="translate(-138.096,-85.98)"
			clip-path="url(#SVGID_2_)"
			fill="#FFFFFF"
			d="m 347.613,362.816 c 0,-0.269 0.215,-0.511 0.51,-0.511 h 11.11 c 0.295,0 0.51,0.242 0.51,0.511 v 2.925 c 0,0.268 -0.215,0.51 -0.51,0.51 h -7.435 v 3.328 h 6.119 c 0.27,0 0.511,0.241 0.511,0.51 v 2.925 c 0,0.296 -0.241,0.511 -0.511,0.511 h -6.119 v 3.623 h 7.435 c 0.295,0 0.51,0.24 0.51,0.509 v 2.926 c 0,0.269 -0.215,0.51 -0.51,0.51 h -11.11 c -0.295,0 -0.51,-0.241 -0.51,-0.51 z"
			id="path175"
			inkscape:connector-curvature="0" />
</svg>
